<?xml version="1.0" encoding="UTF-8" standalone="no"?>
<svg
   xmlns:dc="http://purl.org/dc/elements/1.1/"
   xmlns:cc="http://creativecommons.org/ns#"
   xmlns:rdf="http://www.w3.org/1999/02/22-rdf-syntax-ns#"
   xmlns:svg="http://www.w3.org/2000/svg"
   xmlns="http://www.w3.org/2000/svg"
   xmlns:sodipodi="http://sodipodi.sourceforge.net/DTD/sodipodi-0.dtd"
   xmlns:inkscape="http://www.inkscape.org/namespaces/inkscape"
   height="1000"
   width="937.5"
   id="svg2"
   version="1.1"
   inkscape:version="0.48.4 r9939"
   sodipodi:docname="github.svg">
  <metadata
     id="metadata10">
    <rdf:RDF>
      <cc:Work
         rdf:about="">
        <dc:format>image/svg+xml</dc:format>
        <dc:type
           rdf:resource="http://purl.org/dc/dcmitype/StillImage" />
      </cc:Work>
    </rdf:RDF>
  </metadata>
  <defs
     id="defs8" />
  <sodipodi:namedview
     pagecolor="#ffffff"
     bordercolor="#666666"
     borderopacity="1"
     objecttolerance="10"
     gridtolerance="10"
     guidetolerance="10"
     inkscape:pageopacity="0"
     inkscape:pageshadow="2"
     inkscape:window-width="1600"
     inkscape:window-height="847"
     id="namedview6"
     showgrid="false"
     inkscape:zoom="0.236"
     inkscape:cx="468.75"
     inkscape:cy="500"
     inkscape:window-x="-8"
     inkscape:window-y="-8"
     inkscape:window-maximized="1"
     inkscape:current-layer="svg2" />
  <path
     d="M0 544.696q0 117.12 35.136 186.904 37.576 74.176 116.632 109.8 80.032 37.576 163.48 46.36 75.152 8.784 162.016 8.784 37.576 0 94.184 -2.928 47.336 -2.928 100.772 -12.932t91.988 -26.108q43.92 -18.544 81.008 -50.02t57.584 -72.956q34.16 -69.784 34.16 -186.904 0 -133.712 -76.616 -223.504 15.128 -45.384 15.128 -95.16 0 -65.88 -28.304 -122.488 -58.072 0 -103.7 20.496t-108.092 69.296q-76.616 -18.056 -158.112 -18.056 -88.816 0 -173.728 19.52 -63.928 -50.264 -109.556 -70.76t-103.7 -20.496q-28.792 56.12 -28.792 122.488 0 50.264 15.128 96.136 -76.616 89.792 -76.616 222.528zm125.904 99.064q0 -69.296 39.772 -115.656t104.676 -46.36q25.864 0 109.8 12.2 42.944 6.344 88.328 6.344t88.816 -6.344q85.4 -12.2 109.8 -12.2 64.904 0 104.432 46.36t39.528 115.656q0 49.288 -18.056 86.864 -18.056 36.112 -45.14 57.34t-69.052 33.916q-69.296 20.984 -162.992 20.984h-94.672q-46.36 0 -83.936 -4.392 -40.016 -3.904 -80.52 -17.08t-66.856 -33.184q-28.792 -22.448 -46.36 -59.78t-17.568 -84.668zm90.28 0q0 22.936 7.32 46.36 7.32 25.376 25.132 43.676t39.772 18.3q23.424 0 40.992 -19.032 30.744 -35.624 30.744 -89.304 0 -22.448 -6.344 -45.872 -7.32 -25.376 -25.132 -43.676t-40.26 -18.3q-23.424 0 -40.992 19.52 -31.232 33.672 -31.232 88.328zm360.632 0q0 22.936 7.32 46.36 7.32 25.376 24.888 43.676t39.528 18.3q23.912 0 41.48 -19.032 30.744 -35.624 30.744 -89.304 0 -20.984 -6.832 -45.872 -7.32 -25.376 -25.132 -43.676t-40.26 -18.3q-23.424 0 -40.016 19.52 -31.72 33.672 -31.72 88.328z"
     id="path4" />
  <path
     style="fill:#ffffff"
     d="M 379.76695,891.25801 C 273.07688,880.80131 234.49888,872.9125 180.68671,850.54805 84.359568,810.51436 38.154958,758.40292 14.656201,663.29216 1.9726513,611.95572 0.69146949,496.19218 12.333164,453.38983 21.824348,418.49414 45.02889,369.18539 64.338593,342.8803 L 79.279288,322.527 72.35689,295.81261 C 59.100398,244.65414 64.503352,170.60344 85.051746,121.82203 c 5.788559,-13.7419 8.547186,-15.87988 20.407664,-15.81625 46.049,0.24704 102.97368,23.38174 161.80231,65.75789 l 33.68122,24.26166 48.9459,-7.9703 c 67.29092,-10.95756 189.26713,-11.08215 246.5479,-0.25182 l 40.82229,7.71846 33.33025,-23.92201 c 48.2525,-34.63216 94.66877,-56.24628 133.39763,-62.11777 17.74898,-2.69083 35.05728,-3.82317 38.46292,-2.5163 3.40564,1.30686 10.59856,15.43313 15.98432,31.3917 13.58593,40.25651 16.72843,112.28682 6.68657,153.26363 l -7.21733,29.45089 14.8697,20.69751 c 43.30394,60.27595 59.96149,118.9519 59.95661,211.19678 -0.008,144.64369 -37.12487,221.78123 -135.3372,281.25924 -66.46602,40.25224 -179.91131,60.53962 -330.76114,59.14987 -39.61865,-0.36483 -78.70763,-1.31775 -86.86441,-2.1172 z m 237.78898,-54.23115 c 67.1978,-10.12957 108.96636,-27.05067 140.61322,-56.96466 39.50471,-37.34156 56.00314,-83.09317 52.79178,-146.39661 -2.37364,-46.79093 -13.65784,-78.4561 -37.68657,-105.75415 -38.03178,-43.2064 -74.92038,-52.95908 -161.26169,-42.6347 -90.62936,10.83714 -140.3389,13.50336 -186.69487,10.01358 -23.88772,-1.79832 -68.81144,-6.30443 -99.83049,-10.01358 -85.07906,-10.17344 -122.26028,-0.74011 -159.4851,40.4633 -26.92977,29.80805 -37.41251,58.44483 -39.62782,108.25543 -4.41363,99.23889 37.31994,158.805 133.16143,190.06059 46.00522,15.00313 82.29012,18.39356 200.7396,18.75691 81.88267,0.25127 128.64183,-1.46903 157.28051,-5.78611 l 0,0 z"
     id="path2987"
     inkscape:connector-curvature="0" />
  <path
     style="fill:#ffffff"
     d="M 266.45174,742.58475 C 214.1772,714.09668 203.11955,617.66653 245.72245,561.81124 c 39.20166,-51.39603 102.85543,-12.282 111.28664,68.38353 4.78421,45.77277 -18.84791,101.89392 -48.04335,114.09255 -18.03153,7.53406 -26.16264,7.20843 -42.514,-1.70257 z"
     id="path2989"
     inkscape:connector-curvature="0" />
  <path
     style="fill:#ffffff"
     d="M 627.64831,743.40607 C 578.53877,718.13354 563.97949,625.78553 600.429,570.75682 c 23.91025,-36.09789 57.59522,-41.84766 84.94364,-14.49924 22.33071,22.33071 30.86862,46.53404 31.07684,88.09688 0.16149,32.2336 -1.25194,39.10868 -12.60746,61.3241 -20.15899,39.43816 -47.02228,52.73958 -76.19371,37.72751 z"
     id="path2991"
     inkscape:connector-curvature="0" />
</svg>
